<svg xmlns="http://www.w3.org/2000/svg" version="1.1" xmlns:xlink="http://www.w3.org/1999/xlink" xmlns:svgjs="http://svgjs.dev/svgjs" width="1000" height="449" viewBox="0 0 1000 449"><g transform="matrix(1,0,0,1,-0.6060442952891094,0.6262901220325148)"><svg viewBox="0 0 396 178" data-background-color="#1f2d5a" preserveAspectRatio="xMidYMid meet" height="449" width="1000" xmlns="http://www.w3.org/2000/svg" xmlns:xlink="http://www.w3.org/1999/xlink"><g id="tight-bounds" transform="matrix(1,0,0,1,0.2399935441382013,-0.24828428000398617)"><svg viewBox="0 0 395.52 178.49656856000797" height="178.49656856000797" width="395.52"><g><svg viewBox="0 0 445.3840241375475 200.99999999999997" height="178.49656856000797" width="395.52"><g><rect width="5.556033239949431" height="200.99999999999997" x="171.42752262958282" y="0" fill="#fbfbfb" opacity="1" stroke-width="0" stroke="transparent" fill-opacity="1" class="rect-o-0" data-fill-palette-color="primary" rx="1%" id="o-0" data-palette-color="#fbfbfb"></rect></g><g transform="matrix(1,0,0,1,191.52814550290773,0.4999999999999858)"><svg viewBox="0 0 253.85587863463974 200" height="200" width="253.85587863463974"><g id="textblocktransform"><svg viewBox="0 0 253.85587863463974 200" height="200" width="253.85587863463974" id="textblock"><g><svg viewBox="0 0 253.85587863463974 200" height="200" width="253.85587863463974"><g transform="matrix(1,0,0,1,0,0)"><svg width="253.85587863463974" viewBox="-0.7000026702880859 -34.75 153.14999389648438 114.75" height="200" data-palette-color="#fbfbfb"><svg></svg><svg></svg><svg></svg><g class="undefined-text-0" data-fill-palette-color="primary" id="text-0"><path xmlns="http://www.w3.org/2000/svg" d="M10.7 0h-8.85v-34.75h18.4l-0.9 6.25h-8.65v8.75h7.6v6.25h-7.6zM22.05-34.75h8.85v34.75h-8.85zM57.8-34.75l-7.35 16.05 7.9 18.7h-9.25l-4-12.85-3.65 12.85h-9.1l7.55-18.45-7.05-16.3h9.2l3.15 10.85 3.55-10.85z" fill="#fbfbfb" fill-rule="nonzero" stroke="none" stroke-width="1" stroke-linecap="butt" stroke-linejoin="miter" stroke-miterlimit="10" stroke-dasharray="" stroke-dashoffset="0" font-family="none" font-weight="none" font-size="none" text-anchor="none" style="mix-blend-mode: normal" data-fill-palette-color="primary" opacity="1"></path><path xmlns="http://www.w3.org/2000/svg" d="M17.4 4.8h8.95l-9.1 21.8v12.95h-8.85v-12.9l-9.1-21.85h9.25l4.4 15zM40.2 3.9c4.4 0 7.75 1.517 10.05 4.55 2.3 3.033 3.45 7.6 3.45 13.7v0c0 6.033-1.15 10.59-3.45 13.67-2.3 3.087-5.65 4.63-10.05 4.63v0c-4.4 0-7.74-1.527-10.02-4.58-2.287-3.047-3.43-7.62-3.43-13.72v0c0-6 1.15-10.543 3.45-13.63 2.3-3.08 5.633-4.62 10-4.62zM40.2 10.3c-1.033 0-1.857 0.373-2.47 1.12-0.62 0.753-1.07 1.987-1.35 3.7-0.287 1.72-0.43 4.063-0.43 7.03v0c0 3.033 0.143 5.417 0.43 7.15 0.28 1.733 0.73 2.967 1.35 3.7 0.613 0.733 1.437 1.1 2.47 1.1v0c1.1 0 1.96-0.367 2.58-1.1 0.613-0.733 1.053-1.96 1.32-3.68 0.267-1.713 0.4-4.103 0.4-7.17v0c0-2.967-0.14-5.31-0.42-7.03-0.287-1.713-0.737-2.947-1.35-3.7-0.62-0.747-1.463-1.12-2.53-1.12zM80.2 4.8v24.5c0 2.1-0.44 3.99-1.32 5.67-0.887 1.687-2.23 3.02-4.03 4-1.8 0.987-4.017 1.48-6.65 1.48v0c-3.967 0-6.967-1.01-9-3.03-2.033-2.013-3.05-4.72-3.05-8.12v0-24.5h8.85v24.2c0 1.7 0.243 2.95 0.73 3.75 0.48 0.8 1.303 1.2 2.47 1.2v0c1.133 0 1.943-0.393 2.43-1.18 0.48-0.78 0.72-2.037 0.72-3.77v0-24.2zM99.2 39.55l-5.35-12.95h-1.55v12.95h-8.85v-34.75h9.95c8.8 0 13.2 3.583 13.2 10.75v0c0 2-0.4 3.823-1.2 5.47-0.8 1.653-2.067 2.963-3.8 3.93v0l6.95 14.6zM92.3 10.95v9.6h1.25c1.467 0 2.51-0.393 3.13-1.18 0.613-0.78 0.92-2.053 0.92-3.82v0c0-1.567-0.34-2.727-1.02-3.48-0.687-0.747-1.747-1.12-3.18-1.12v0z" fill="#fbfbfb" fill-rule="nonzero" stroke="none" stroke-width="1" stroke-linecap="butt" stroke-linejoin="miter" stroke-miterlimit="10" stroke-dasharray="" stroke-dashoffset="0" font-family="none" font-weight="none" font-size="none" text-anchor="none" style="mix-blend-mode: normal" data-fill-palette-color="primary" opacity="1"></path><path xmlns="http://www.w3.org/2000/svg" d="M18.45 60.7c4.6 1.133 6.9 3.883 6.9 8.25v0c0 3.5-1.2 6.067-3.6 7.7-2.4 1.633-5.65 2.45-9.75 2.45v0h-10.15v-34.75h9c4.2 0 7.467 0.75 9.8 2.25 2.333 1.5 3.5 3.733 3.5 6.7v0c0 1.967-0.533 3.567-1.6 4.8-1.067 1.233-2.433 2.1-4.1 2.6zM11.7 50.55h-1v7.6h1.05c1.3 0 2.217-0.333 2.75-1 0.533-0.667 0.8-1.65 0.8-2.95v0c0-1.167-0.273-2.067-0.82-2.7-0.553-0.633-1.48-0.95-2.78-0.95zM12.05 72.75c1.4 0 2.467-0.343 3.2-1.03 0.733-0.68 1.1-1.787 1.1-3.32v0c0-1.533-0.317-2.667-0.95-3.4-0.633-0.733-1.683-1.1-3.15-1.1v0h-1.55v8.85zM51.25 44.35v24.5c0 2.1-0.44 3.99-1.32 5.67-0.887 1.687-2.23 3.02-4.03 4-1.8 0.987-4.017 1.48-6.65 1.48v0c-3.967 0-6.967-1.01-9-3.03-2.033-2.013-3.05-4.72-3.05-8.12v0-24.5h8.85v24.2c0 1.7 0.243 2.95 0.73 3.75 0.48 0.8 1.303 1.2 2.47 1.2v0c1.133 0 1.943-0.393 2.43-1.18 0.48-0.78 0.72-2.037 0.72-3.77v0-24.2zM63.95 44.35c3.033 0 5.65 0.44 7.85 1.32 2.2 0.887 3.983 2.597 5.35 5.13 1.367 2.533 2.05 6.133 2.05 10.8v0c0 6.467-1.323 11-3.97 13.6-2.653 2.6-6.263 3.9-10.83 3.9v0h-9.9v-34.75zM65 50.65h-1.65v22.1h1.55c1.233 0 2.227-0.327 2.98-0.98 0.747-0.647 1.313-1.78 1.7-3.4 0.38-1.613 0.57-3.87 0.57-6.77v0c0-2.9-0.19-5.15-0.57-6.75-0.387-1.6-0.953-2.7-1.7-3.3-0.753-0.6-1.713-0.9-2.88-0.9zM96.05 43.45c2.067 0 3.96 0.39 5.68 1.17 1.713 0.787 3.22 1.847 4.52 3.18v0l-4.1 4.35c-1.033-0.833-1.973-1.443-2.82-1.83-0.853-0.38-1.797-0.57-2.83-0.57v0c-1.367 0-2.483 0.357-3.35 1.07-0.867 0.72-1.517 1.953-1.95 3.7-0.433 1.753-0.65 4.163-0.65 7.23v0c0 3.2 0.15 5.65 0.45 7.35 0.3 1.7 0.767 2.873 1.4 3.52 0.633 0.653 1.483 0.98 2.55 0.98v0c1.067 0 2.067-0.3 3-0.9v0-7.6h-2.85l-0.85-6.1h12v17.25c-1.567 1.167-3.34 2.083-5.32 2.75-1.987 0.667-3.913 1-5.78 1v0c-4.767 0-8.25-1.477-10.45-4.43-2.2-2.947-3.3-7.57-3.3-13.87v0c0-4.067 0.633-7.467 1.9-10.2 1.267-2.733 2.993-4.76 5.18-6.08 2.18-1.313 4.703-1.97 7.57-1.97zM109.7 44.35h19.1l-0.95 6.25h-9.3v7.8h8.2v6.15h-8.2v8.25h9.95v6.3h-18.8zM129.55 44.35h22.9l-0.9 6.65h-6.35v28.1h-8.85v-28.1h-6.8z" fill="#fbfbfb" fill-rule="nonzero" stroke="none" stroke-width="1" stroke-linecap="butt" stroke-linejoin="miter" stroke-miterlimit="10" stroke-dasharray="" stroke-dashoffset="0" font-family="none" font-weight="none" font-size="none" text-anchor="none" style="mix-blend-mode: normal" data-fill-palette-color="primary" opacity="1"></path></g></svg></g></svg></g></svg></g></svg></g><g transform="matrix(1,0,0,1,0,23.753262928564027)"><svg viewBox="0 0 156.88293299620736 153.49347414287192" height="153.49347414287192" width="156.88293299620736"><g><svg xmlns="http://www.w3.org/2000/svg" xmlns:xlink="http://www.w3.org/1999/xlink" version="1.1" x="0" y="0" viewBox="0.10000000149011612 0.7999992370605469 64.80000305175781 63.39999771118164" enable-background="new 0 0 65 65" xml:space="preserve" height="153.49347414287192" width="156.88293299620736" class="icon-icon-0" data-fill-palette-color="accent" id="icon-0"><g fill="#45cc91" data-fill-palette-color="accent"><path d="M62.3 41.3V29.4H14.2v34.8h48.2V52.3h2.5v-11H62.3zM60.8 62.8H15.7V30.9h45.2v10.4H51c-1.5 0-2.8 1.2-2.8 2.8v5.5c0 1.5 1.2 2.8 2.8 2.8h9.9V62.8zM63.4 50.8H51c-0.7 0-1.3-0.6-1.3-1.3v-5.5c0-0.7 0.6-1.3 1.3-1.3h12.4V50.8z" fill="#45cc91" data-fill-palette-color="accent"></path><path d="M53.8 49.7c1.6 0 2.9-1.3 2.9-2.9S55.4 44 53.8 44c-1.6 0-2.9 1.3-2.9 2.9S52.2 49.7 53.8 49.7zM53.8 45.5c0.8 0 1.4 0.6 1.4 1.4s-0.6 1.4-1.4 1.4c-0.8 0-1.4-0.6-1.4-1.4S53 45.5 53.8 45.5z" fill="#45cc91" data-fill-palette-color="accent"></path><rect x="30.3" y="33.9" width="1.5" height="1.5" fill="#45cc91" data-fill-palette-color="accent"></rect><rect x="48.8" y="33.9" width="1.5" height="1.5" fill="#45cc91" data-fill-palette-color="accent"></rect><rect x="26.6" y="33.9" width="1.5" height="1.5" fill="#45cc91" data-fill-palette-color="accent"></rect><rect x="56.2" y="33.9" width="1.5" height="1.5" fill="#45cc91" data-fill-palette-color="accent"></rect><rect x="52.5" y="33.9" width="1.5" height="1.5" fill="#45cc91" data-fill-palette-color="accent"></rect><rect x="41.4" y="33.9" width="1.5" height="1.5" fill="#45cc91" data-fill-palette-color="accent"></rect><rect x="45.1" y="33.9" width="1.5" height="1.5" fill="#45cc91" data-fill-palette-color="accent"></rect><rect x="37.7" y="33.9" width="1.5" height="1.5" fill="#45cc91" data-fill-palette-color="accent"></rect><rect x="34" y="33.9" width="1.5" height="1.5" fill="#45cc91" data-fill-palette-color="accent"></rect><rect x="22.9" y="33.9" width="1.5" height="1.5" fill="#45cc91" data-fill-palette-color="accent"></rect><rect x="19.2" y="33.9" width="1.5" height="1.5" fill="#45cc91" data-fill-palette-color="accent"></rect><rect x="18.6" y="58.2" width="14.6" height="1.5" fill="#45cc91" data-fill-palette-color="accent"></rect><rect x="18.6" y="54.7" width="8.3" height="1.5" fill="#45cc91" data-fill-palette-color="accent"></rect><path d="M28.9 21.4c1.8 2.1 4.4 3.4 7.2 3.4 5.2 0 9.5-4.3 9.5-9.5s-4.3-9.5-9.5-9.5c-0.4 0-0.8 0-1.1 0.1l-5.1-5.1L7.3 3.6V0.8H0.1v1.5h5.7v1.5 13.7 1.3H1.3v1.5h6v-2.8h1.4l1.5 1.6c1.3 1.4 3.2 2.3 5.1 2.3H28.9zM36.1 7.3c4.4 0 8 3.6 8 8 0 4.4-3.6 8-8 8-1.9 0-3.7-0.7-5.1-1.9h2.2v-0.8c0-2.9-2.2-5.2-5.1-5.4C28.2 10.8 31.7 7.3 36.1 7.3zM26.6 15.2h-1.9c-0.9 0-1.8-0.4-2.5-1C22.1 14 22 13.7 22 13.5c0-0.3 0.1-0.5 0.3-0.7l4.8-4.8 1.6 1.6C27.4 11.1 26.7 13 26.6 15.2zM11.2 18.1L9.3 16h-2V5.1l22-2.7 3.9 3.9c-1.4 0.4-2.6 1.2-3.6 2.1l-2.6-2.6-5.9 5.9c-0.5 0.5-0.7 1.1-0.7 1.8 0 0.7 0.3 1.3 0.7 1.8 0.9 0.9 2.2 1.5 3.5 1.5h3.1c1.9 0 3.5 1.4 3.8 3.2H15.2C13.7 19.9 12.2 19.2 11.2 18.1z" fill="#45cc91" data-fill-palette-color="accent"></path><path d="M35.1 17.8c-0.2-0.2-0.4-0.5-0.4-0.7h-1.5c0 0.7 0.3 1.4 0.9 1.9 0.4 0.3 0.8 0.5 1.2 0.6v1.3h1.5v-1.3c0.5-0.1 0.9-0.3 1.2-0.6 0.6-0.5 0.9-1.2 0.9-1.9 0-0.7-0.3-1.4-0.9-1.9-0.5-0.5-1.2-0.7-2-0.7-0.4 0-0.7-0.1-1-0.4-0.2-0.2-0.4-0.5-0.4-0.7s0.1-0.5 0.4-0.7c0.5-0.5 1.5-0.5 2 0 0.2 0.2 0.4 0.5 0.4 0.7H39c0-0.7-0.3-1.4-0.9-1.9-0.3-0.3-0.8-0.5-1.2-0.6V9.7h-1.5V11c-0.5 0.1-0.9 0.3-1.2 0.6-0.6 0.5-0.9 1.2-0.9 1.9 0 0.7 0.3 1.4 0.9 1.9 0.5 0.5 1.2 0.7 2 0.7 0.4 0 0.7 0.1 1 0.4 0.2 0.2 0.4 0.5 0.4 0.7 0 0.3-0.1 0.5-0.4 0.7C36.6 18.3 35.6 18.3 35.1 17.8z" fill="#45cc91" data-fill-palette-color="accent"></path></g></svg></g></svg></g></svg></g><defs></defs></svg><rect width="395.52" height="178.49656856000797" fill="none" stroke="none" visibility="hidden"></rect></g></svg></g></svg>